<svg xmlns="http://www.w3.org/2000/svg" viewBox="0 0 160 160">
  <defs>
    <linearGradient id="glow" x1="50%" y1="0%" x2="50%" y2="100%">
      <stop offset="0%" stop-color="#ffffff" stop-opacity="0.85" />
      <stop offset="100%" stop-color="#dffbf0" stop-opacity="0.25" />
    </linearGradient>
    <linearGradient id="mintBottle" x1="0%" y1="0%" x2="100%" y2="100%">
      <stop offset="0%" stop-color="#8becc5" />
      <stop offset="100%" stop-color="#1fbba4" />
    </linearGradient>
    <linearGradient id="mintGlass" x1="0%" y1="0%" x2="100%" y2="100%">
      <stop offset="0%" stop-color="#9ef3ce" />
      <stop offset="100%" stop-color="#27c3ab" />
    </linearGradient>
  </defs>
  <g filter="url(#shadow)" transform="translate(20,10)">
    <path d="M58 6c-3 0-6 2-7 5l-6 24c-1 3 0 7 3 9l3 2-3 72c0 5 4 9 9 9h24c5 0 9-4 9-9l-3-72 3-2c3-2 4-6 3-9l-6-24c-1-3-4-5-7-5H58z" fill="url(#mintBottle)" />
    <path d="M60 22h20l4 14c1 3-1 6-3 7l-3 2H59l-3-2c-2-1-4-4-3-7l4-14zm-2 32h24l3 64c0 2-1 4-4 4H60c-3 0-4-2-4-4z" fill="url(#glow)" opacity="0.75" />
    <g transform="translate(-6,20) rotate(-18 32 90)">
      <path d="M20 30l10 44c1 4-1 8-4 10l-4 2 2 10c0 2 2 4 4 4h12c2 0 4-2 4-4l2-10-4-2c-3-2-5-6-4-10l10-44c1-5-3-10-8-10H28c-5 0-9 5-8 10z" fill="url(#mintGlass)" />
      <path d="M20 30c-1-3 1-6 4-6h6c3 0 5 3 4 6l-7 30z" fill="#0f594a" opacity="0.3" />
      <path d="M18 28h20l-2 10c0 2-2 4-4 4H24c-2 0-4-2-4-4z" fill="url(#glow)" opacity="0.6" />
    </g>
    <g transform="translate(70,20) rotate(18 32 90)">
      <path d="M20 30l10 44c1 4-1 8-4 10l-4 2 2 10c0 2 2 4 4 4h12c2 0 4-2 4-4l2-10-4-2c-3-2-5-6-4-10l10-44c1-5-3-10-8-10H28c-5 0-9 5-8 10z" fill="url(#mintGlass)" />
      <path d="M20 30c-1-3 1-6 4-6h6c3 0 5 3 4 6l-7 30z" fill="#0f594a" opacity="0.3" />
      <path d="M18 28h20l-2 10c0 2-2 4-4 4H24c-2 0-4-2-4-4z" fill="url(#glow)" opacity="0.6" />
    </g>
    <circle cx="38" cy="22" r="4" fill="#27c3ab" opacity="0.85" />
    <circle cx="104" cy="26" r="5" fill="#1fbba4" opacity="0.75" />
    <circle cx="94" cy="14" r="3" fill="#9ef3ce" />
  </g>
</svg>
