<svg xmlns="http://www.w3.org/2000/svg" viewBox="0 0 160 160">
  <defs>
    <linearGradient id="partyMint" x1="0%" y1="0%" x2="100%" y2="100%">
      <stop offset="0%" stop-color="#8becc5" />
      <stop offset="100%" stop-color="#1fbba4" />
    </linearGradient>
    <linearGradient id="partyHighlight" x1="0%" y1="0%" x2="0%" y2="100%">
      <stop offset="0%" stop-color="#ffffff" stop-opacity="0.9" />
      <stop offset="100%" stop-color="#dffbf0" stop-opacity="0.2" />
    </linearGradient>
    <filter id="partyShadow" x="-20%" y="-20%" width="140%" height="140%">
      <feDropShadow dx="0" dy="10" stdDeviation="12" flood-color="#0f594a" flood-opacity="0.25" />
    </filter>
  </defs>
  <g filter="url(#partyShadow)" transform="translate(20,18)">
    <path d="M50 70c12 10 20 26 20 26s-16-2-28-12c-12-10-20-26-20-26s16 2 28 12z" fill="url(#partyMint)" opacity="0.65" />
    <ellipse cx="48" cy="40" rx="22" ry="28" fill="url(#partyMint)" />
    <ellipse cx="78" cy="44" rx="18" ry="24" fill="url(#partyMint)" opacity="0.85" />
    <ellipse cx="108" cy="36" rx="16" ry="22" fill="url(#partyMint)" opacity="0.7" />
    <path d="M48 12c-10 0-18 12-18 28 0 13 4 25 11 31l7-5c-5-4-8-14-8-26 0-12 4-20 8-20 3 0 6 3 7 6l8-4c-3-6-8-10-15-10z" fill="url(#partyHighlight)" />
    <path d="M76 22l6 6-10 10 4 4 10-10 6 6 6-22z" fill="#0f594a" opacity="0.45" />
    <path d="M48 68c1 10 5 18 10 24" stroke="#1fbba4" stroke-width="3" stroke-linecap="round" fill="none" />
    <path d="M78 64c0 9 3 17 8 24" stroke="#1fbba4" stroke-width="3" stroke-linecap="round" fill="none" />
  </g>
</svg>
